<?xml version="1.0" encoding="UTF-8"?>
<svg xmlns="http://www.w3.org/2000/svg" viewBox="0 0 1024 500">
    <defs>
        <!-- Reusable bus component -->
        <g id="busIcon">
            <!-- Bus body -->
            <rect x="0" y="0" width="32" height="32" rx="6" fill="#007AFF"/>
            <!-- Windshield -->
            <rect x="4" y="4" width="24" height="12" rx="2" fill="white" opacity="0.9"/>
            <!-- Headlights -->
            <rect x="4" y="20" width="7" height="6" rx="1" fill="white"/>
            <rect x="21" y="20" width="7" height="6" rx="1" fill="white"/>
            <!-- Wheels -->
            <circle cx="8" cy="32" r="4" fill="#007AFF"/>
            <circle cx="24" cy="32" r="4" fill="#007AFF"/>
        </g>

        <!-- Reusable clock component -->
        <g id="clockIcon">
            <circle cx="330" cy="16" r="12" fill="#007AFF"/>
        </g>

        <!-- Reusable connecting line -->
        <g id="connectingLine">
            <path d="M42 16 H305" stroke="#007AFF" stroke-width="6" stroke-linecap="round"/>
        </g>

        <!-- Reusable eye component -->
        <g id="eye">
            <ellipse cx="0" cy="0" rx="11" ry="15" fill="none" stroke="#007AFF" stroke-width="1.8"/>
            <ellipse cx="-7" cy="0" rx="4" ry="7" fill="#007AFF"/>
            <ellipse cx="-9.5" cy="0" rx="1" ry="2" fill="white" stroke="white" stroke-width="1" opacity="0.9"/>
        </g>
    </defs>

    <!-- Background -->
    <rect x="0" y="0" width="1024" height="500" rx="64" fill="#007AFF"/>

    <!-- Widget Frame -->
    <rect x="20" y="20" width="980" height="460" rx="50" fill="white" opacity="0.95"/>

    <!-- Lines -->
    <g transform="translate(100, 100) scale(2.5)">
        <!-- Line 1 -->
        <g transform="translate(0, -20)">
            <use href="#busIcon"/>
            <use href="#connectingLine"/>
            <use href="#clockIcon"/>
            <path d="M330 8 L330 16 L338 16" stroke="white" stroke-width="2" fill="none"/>
        </g>

        <!-- Peek Logo -->
        <g transform="translate(32, 105) scale(2.8)">
            <text font-family="SFProText-Black, Arial, sans-serif" font-size="45" fill="#007AFF" font-weight="bold">
                <tspan x="0" y="0">P</tspan>
            </text>

            <!-- Eyes -->
            <g transform="translate(40, -16)">
                <use href="#eye"/>
            </g>
            <g transform="translate(63, -16)">
                <use href="#eye"/>
            </g>

            <text font-family="SFProText-Black, Arial, sans-serif" font-size="45" fill="#007AFF" font-weight="bold">
                <tspan x="72" y="0">k</tspan>
            </text>
        </g>

        <!-- Line 2 -->
        <g transform="translate(0, 107) scale(1)">
            <use href="#busIcon"/>
            <use href="#connectingLine"/>
            <use href="#clockIcon"/>
            <path d="M330 8 L330 16 L324 12" stroke="white" stroke-width="2" fill="none"/>
        </g>
    </g>
</svg>